<?xml version="1.0" standalone="no"?>
<!DOCTYPE svg PUBLIC "-//W3C//DTD SVG 20010904//EN"
 "http://www.w3.org/TR/2001/REC-SVG-20010904/DTD/svg10.dtd">
<svg version="1.0" xmlns="http://www.w3.org/2000/svg"
 width="235.000000pt" height="235.000000pt" viewBox="0 0 235.000000 235.000000"
 preserveAspectRatio="xMidYMid meet">
<metadata>
Created by potrace 1.11, written by Peter Selinger 2001-2013
</metadata>
<g transform="translate(0.000000,235.000000) scale(0.100000,-0.100000)"
fill="#000000" stroke="none">
<path d="M789 1723 c-211 -328 -411 -639 -444 -690 -215 -331 -324 -502 -334
-521 -9 -16 11 -17 282 -17 l292 1 80 -62 c44 -35 174 -137 289 -229 115 -91
213 -168 217 -170 4 -3 36 19 72 47 35 29 76 62 90 73 14 11 116 92 227 180
l202 160 286 1 c158 1 290 2 294 3 4 0 -22 47 -59 104 -36 56 -91 140 -121
187 -30 47 -75 115 -99 153 -23 37 -63 97 -86 135 -24 37 -69 105 -99 152 -30
47 -111 173 -180 280 -69 107 -141 218 -159 247 -124 190 -184 284 -257 398
-45 72 -86 130 -91 130 -5 0 -13 4 -18 9 -5 5 -3 6 5 2 13 -8 17 10 4 18 -5 3
-182 -263 -393 -591z"/>
</g>
</svg>
